# xmcd CD database file
#
# Track frame offsets:
#	150
#	21429
#	35055
#	58112
#	70457
#	84609
#	108522
#	126992
#	146539
#	161741
#	178521
#	192681
#	211826
#	232866
#	244381
#
# Disc length: 3528 seconds
#
# Revision: 2
# Processed by: cddbd v1.5.2PL0 Copyright (c) Steve Scherf et al.
# Submitted via: CDex 1.50
#
DISCID=e40dc60f
DTITLE=Patricia Kaas - Chante Piaf à l'Olympia
DYEAR=2014
DGENRE=Pop
TTITLE0=Mon Dieu
TTITLE1=Je t'ai dans la peau
TTITLE2=Milord
TTITLE3=Avec ce soleil
TTITLE4=C'est un gars
TTITLE5=La vie en rose
TTITLE6=T'es beau tu sais
TTITLE7=Hymne à l'amour
TTITLE8=Non, je ne regrette rien [Live Paris 2013]
TTITLE9=La foule [Live Paris 2013]
TTITLE10=L'étranger [Live Paris 2013]
TTITLE11=Les blouses blanches [Live Paris 2013]
TTITLE12=Padam-Padam [Live Paris 2013]
TTITLE13=The 9th Hour (Prélude) [Live Paris 2013]
TTITLE14=La belle histoire d'amour [Live Paris 2013]
EXTD=YEAR: 2014
EXTT0=
EXTT1=
EXTT2=
EXTT3=
EXTT4=
EXTT5=
EXTT6=
EXTT7=
EXTT8=
EXTT9=
EXTT10=
EXTT11=
EXTT12=
EXTT13=
EXTT14=
PLAYORDER=
